<?xml version="1.0" encoding="UTF-8"?>
<svg width="24px" height="24px" viewBox="0 0 24 24" version="1.1" xmlns="http://www.w3.org/2000/svg" xmlns:xlink="http://www.w3.org/1999/xlink">
    <title>icon/转发</title>
    <g id="整理后" stroke="none" stroke-width="1" fill="none" fill-rule="evenodd">
        <g id="只看未读" transform="translate(-1352.000000, -122.000000)">
            <g id="icon/转发" transform="translate(1352.000000, 122.000000)">
                <rect id="矩形" x="0" y="0" width="24" height="24"></rect>
                <path d="M10.1382245,5.07501066 L9.97746218,5.11465553 C7.03610873,5.75326688 4.35371511,8.68479943 4.35371511,12.1024347 C4.35371511,16.0478546 7.55210985,19.2462493 11.4975297,19.2462493 C14.9534746,19.2462493 17.8362509,16.7922229 18.498343,13.5316858 C18.8156364,11.9691439 20.6176721,12.3745889 20.4341897,13.5312755 C19.7491379,17.8498909 16.0088726,21.1512666 11.4975297,21.1512666 C6.49999789,21.1512666 2.44869788,17.0999665 2.44869788,12.1024347 C2.44869788,7.59086639 5.65859959,3.86724844 9.97753241,3.18246784 C11.128799,2.99993083 11.8332974,4.60370636 10.1382245,5.07501066 Z M19.6926798,3 C20.2449645,3 20.6926798,3.44771525 20.6926798,4 L20.6926798,10 C20.6926798,10.5522847 20.2449645,11 19.6926798,11 C19.140395,11 18.6926798,10.5522847 18.6926798,10 L18.6922527,6.414 L12.5071068,12.1512666 C12.1165825,12.5417908 11.4834175,12.5417908 11.0928932,12.1512666 C10.7023689,11.7607423 10.7023689,11.1275773 11.0928932,10.737053 L17.2772527,5 L13.6926798,5 C13.140395,5 12.6926798,4.55228475 12.6926798,4 C12.6926798,3.44771525 13.140395,3 13.6926798,3 L19.6926798,3 Z" id="形状备份" fill="#9999A3"></path>
            </g>
        </g>
    </g>
</svg>