<?xml version="1.0" encoding="UTF-8"?>
<svg width="24px" height="24px" viewBox="0 0 24 24" version="1.1" xmlns="http://www.w3.org/2000/svg" xmlns:xlink="http://www.w3.org/1999/xlink">
    <title>icon/回复全部</title>
    <g id="整理后" stroke="none" stroke-width="1" fill="none" fill-rule="evenodd">
        <g id="已发送" transform="translate(-1312.000000, -122.000000)">
            <g id="编组-14" transform="translate(1312.000000, 122.000000)">
                <rect id="矩形" x="0" y="0" width="24" height="24"></rect>
                <g id="编组-13" transform="translate(0.800000, 2.999877)">
                    <path d="M10.5767858,10.9171229 C10.9027858,10.9171229 11.2367858,10.9331229 11.5887858,10.9531229 C11.9687858,10.9761229 12.3747858,11.0001229 12.8287858,11.0001229 C13.3817858,11.0001229 13.8287858,11.4471229 13.8287858,12.0001229 L13.8287858,14.7731229 L20.3237858,9.00012287 L13.8287858,3.22712287 L13.8287858,6.00012287 C13.8287858,6.55312287 13.3817858,7.00012287 12.8287858,7.00012287 C8.53678576,7.00012287 6.11178576,9.88012287 5.30978576,13.1771229 C7.60578576,11.2801229 8.99978576,10.9171229 10.5767858,10.9171229 M12.8287858,18.0001229 C12.6897858,18.0001229 12.5507858,17.9721229 12.4197858,17.9121229 C12.0597858,17.7511229 11.8287858,17.3941229 11.8287858,17.0001229 L11.8287858,12.9701229 C11.7067858,12.9641229 11.5877858,12.9561229 11.4707858,12.9491229 C9.52578576,12.8351229 8.44678576,12.7711229 4.70778576,16.4251229 C4.42078576,16.7071229 3.98978576,16.7881229 3.62078576,16.6321229 C3.24978576,16.4761229 3.00878576,16.1121229 3.00878576,15.7101229 C3.00878576,10.6701229 6.03278576,5.57112287 11.8287858,5.04512287 L11.8287858,1.00012287 C11.8287858,0.606122874 12.0597858,0.249122874 12.4197858,0.0881228742 C12.7777858,-0.0738771258 13.1987858,-0.0088771258 13.4927858,0.253122874 L22.4927858,8.25312287 C22.7067858,8.44212287 22.8287858,8.71512287 22.8287858,9.00012287 C22.8287858,9.28512287 22.7067858,9.55812287 22.4927858,9.74712287 L13.4927858,17.7471229 C13.3057858,17.9131229 13.0687858,18.0001229 12.8287858,18.0001229" id="颜色" fill="#9999A3" transform="translate(12.918786, 9.000061) scale(-1, 1) translate(-12.918786, -9.000061) "></path>
                    <path d="M8.66906409,0.980438214 L0.39525838,8.63441374 C0.192551031,8.82193532 0.18024053,9.13827837 0.367762107,9.34098572 C0.376140274,9.35004236 0.384850783,9.3587858 0.393875746,9.36719809 L8.66906409,17.0806076 L8.66906409,17.0806076" id="路径-4" stroke="#9999A3" stroke-width="2" stroke-linecap="round" stroke-linejoin="round"></path>
                </g>
            </g>
        </g>
    </g>
</svg>