<?xml version="1.0" encoding="UTF-8"?>
<svg width="24px" height="24px" viewBox="0 0 24 24" version="1.1" xmlns="http://www.w3.org/2000/svg" xmlns:xlink="http://www.w3.org/1999/xlink">
    <title>icon/回复</title>
    <g id="整理后" stroke="none" stroke-width="1" fill="none" fill-rule="evenodd">
        <g id="只看未读" transform="translate(-1272.000000, -122.000000)">
            <g id="icon/回复" transform="translate(1272.000000, 122.000000)">
                <rect id="矩形" x="0" y="0" width="24" height="24"></rect>
                <path d="M9.748,13.917 C10.074,13.917 10.408,13.933 10.76,13.953 C11.14,13.976 11.546,14 12,14 C12.553,14 13,14.447 13,15 L13,17.773 L19.495,12 L13,6.227 L13,9 C13,9.553 12.553,10 12,10 C7.708,10 5.283,12.88 4.481,16.177 C6.777,14.28 8.171,13.917 9.748,13.917 M12,21 C11.861,21 11.722,20.972 11.591,20.912 C11.231,20.751 11,20.394 11,20 L11,15.97 C10.878,15.964 10.759,15.956 10.642,15.949 C8.697,15.835 7.618,15.771 3.879,19.425 C3.592,19.707 3.161,19.788 2.792,19.632 C2.421,19.476 2.18,19.112 2.18,18.71 C2.18,13.67 5.204,8.571 11,8.045 L11,4 C11,3.606 11.231,3.249 11.591,3.088 C11.949,2.926 12.37,2.991 12.664,3.253 L21.664,11.253 C21.878,11.442 22,11.715 22,12 C22,12.285 21.878,12.558 21.664,12.747 L12.664,20.747 C12.477,20.913 12.24,21 12,21" id="颜色备份" fill="#9999A3" transform="translate(12.090000, 11.999939) scale(-1, 1) translate(-12.090000, -11.999939) "></path>
            </g>
        </g>
    </g>
</svg>