<?xml version="1.0" encoding="UTF-8"?>
<svg width="24px" height="24px" viewBox="0 0 24 24" version="1.1" xmlns="http://www.w3.org/2000/svg" xmlns:xlink="http://www.w3.org/1999/xlink">
    <title>icon/恢复</title>
    <g id="整理后" stroke="none" stroke-width="1" fill="none" fill-rule="evenodd">
        <g id="已删除" transform="translate(-1392.000000, -122.000000)">
            <g id="编组-21备份" transform="translate(1392.000000, 122.000000)">
                <rect id="矩形" x="0" y="0" width="24" height="24"></rect>
                <path d="M12.4525424,2.25 C17.5868051,2.25 21.75,6.63822222 21.75,12.05 C21.75,17.4617778 17.5868051,21.85 12.4525424,21.85 C9.99208476,21.85 7.76792043,20.8437761 6.10551773,19.2029771 L5.97356534,19.0689778 L5.87824706,18.9796465 C5.5058488,18.5871195 5.47720278,17.9694679 5.792309,17.5423063 L5.87824706,17.439725 C6.25064532,17.047198 6.83662385,17.0170037 7.24188061,17.3491419 L7.34019119,17.4407695 L7.34019119,17.4407695 L7.34927121,17.4291111 C8.65091527,18.812 10.4587543,19.6722222 12.4525424,19.6722222 C16.4504492,19.6722222 19.6838983,16.264 19.6838983,12.05 C19.6838983,7.836 16.4504492,4.42777778 12.4525424,4.42777778 C8.53792534,4.42777778 5.35624531,7.69547 5.22537436,11.7876977 L5.22118647,12.05 L7.15406513,12.0519687 L7.15406513,12.0519687 L7.26405732,12.0746494 L7.34783867,12.1109624 L7.34783867,12.1109624 L7.41719938,12.1566303 L7.47528328,12.2094641 L7.54404707,12.2990258 L7.56861658,12.343632 L7.56861658,12.343632 L7.59556896,12.4082236 L7.59556896,12.4082236 L7.61394416,12.4744833 L7.61394416,12.4744833 L7.62627124,12.5758693 L7.62627124,12.5758693 L7.62210921,12.6629709 L7.60897356,12.7357225 L7.60897356,12.7357225 L7.58703501,12.8037154 L7.58703501,12.8037154 L7.52528876,12.9183056 L7.48289997,12.9712265 L7.48289997,12.9712265 L4.55337425,16.0592677 C4.35165853,16.2718864 4.02461271,16.2718864 3.82289699,16.0592677 L0.871058087,12.9450688 L0.871058087,12.9450688 L0.841220334,12.9040215 L0.809678301,12.8493014 L0.780702287,12.7806653 L0.780702287,12.7806653 L0.762327072,12.7144056 L0.762327072,12.7144056 L0.75,12.6130196 L0.75,12.6130196 L0.754162029,12.5274579 L0.762343768,12.474187 L0.789236238,12.3851735 L0.789236238,12.3851735 L0.841857996,12.2839079 L0.841857996,12.2839079 L0.886973104,12.2248226 L0.886973104,12.2248226 L0.963031946,12.1537921 L0.963031946,12.1537921 L1.00672749,12.1235846 L1.00672749,12.1235846 L1.06814219,12.091472 L1.15241701,12.0633084 L1.15241701,12.0633084 L1.2222061,12.0519687 L1.2222061,12.0519687 L3.15508478,12.05 C3.15508478,6.63822222 7.31827968,2.25 12.4525424,2.25 Z" id="路径" fill="#9999A3"></path>
            </g>
        </g>
    </g>
</svg>