<?xml version="1.0" encoding="UTF-8"?>
<svg width="24px" height="24px" viewBox="0 0 24 24" version="1.1" xmlns="http://www.w3.org/2000/svg" xmlns:xlink="http://www.w3.org/1999/xlink">
    <title>icon/编辑</title>
    <g id="整理后" stroke="none" stroke-width="1" fill="none" fill-rule="evenodd">
        <g id="草稿箱" transform="translate(-1352.000000, -122.000000)">
            <g id="编组-11" transform="translate(1348.000000, 118.000000)">
                <g id="编组-16" transform="translate(4.000000, 4.000000)">
                    <rect id="矩形" x="0" y="0" width="24" height="24"></rect>
                    <path d="M11.7276426,3 C12.2246989,3 12.6276426,3.40294373 12.6276426,3.9 C12.6276426,4.36155226 12.2802064,4.74195644 11.8326016,4.79394504 L11.7276426,4.8 L6.6,4.8 C5.65107438,4.8 4.87365139,5.53429001 4.80493716,6.46566389 L4.8,6.6 L4.8,17.4 C4.8,18.3489256 5.53429001,19.1263486 6.46566389,19.1950628 L6.6,19.2 L17.4,19.2 C18.3489256,19.2 19.1263486,18.46571 19.1950628,17.5343361 L19.2,17.4 L19.2,11.9773409 C19.2,11.4802846 19.6029437,11.0773409 20.1,11.0773409 C20.5615523,11.0773409 20.9419564,11.424777 20.993945,11.8723819 L21,11.9773409 L21,17.4 C21,19.3279759 19.4844284,20.901971 17.5796763,20.9955942 L17.4,21 L6.6,21 C4.67202415,21 3.09802901,19.4844284 3.00440578,17.5796763 L3,17.4 L3,6.6 C3,4.67202415 4.51557162,3.09802901 6.42032369,3.00440578 L6.6,3 L11.7276426,3 Z M20.3183766,3.68162338 C20.6698485,4.03309524 20.6698485,4.60294373 20.3183766,4.95441559 L13.3180195,11.9547727 C12.9665476,12.3062446 12.3966991,12.3062446 12.0452273,11.9547727 C11.6937554,11.6033009 11.6937554,11.0334524 12.0452273,10.6819805 L19.0455844,3.68162338 C19.3970563,3.33015152 19.9669048,3.33015152 20.3183766,3.68162338 Z" id="形状结合备份" fill="#9999A3"></path>
                </g>
            </g>
        </g>
    </g>
</svg>